HIERARCHY
ROOT Hips
{
	OFFSET 0.000000 0.000000 0.000000
	CHANNELS 6 Xposition Yposition Zposition Zrotation Yrotation Xrotation 
	JOINT LHipJoint
	{
		OFFSET 0.000000 0.000000 0.000000
		CHANNELS 3 Zrotation Yrotation Xrotation
		JOINT LeftUpLeg
		{
			OFFSET 8.178360 -10.767780 5.035740
			CHANNELS 3 Zrotation Yrotation Xrotation
			JOINT LeftLeg
			{
				OFFSET 14.688660 -40.356780 0.000000
				CHANNELS 3 Zrotation Yrotation Xrotation
				JOINT LeftFoot
				{
					OFFSET 15.373200 -42.237540 0.000000
					CHANNELS 3 Zrotation Yrotation Xrotation
					JOINT LeftToeBase
					{
						OFFSET 0.945840 -2.598660 13.935300
						CHANNELS 3 Zrotation Yrotation Xrotation
						End Site
						{
							OFFSET 0.000000 0.000000 0.000000
						}
					}
				}
			}
		}
	}
	JOINT RHipJoint
	{
		OFFSET 0.000000 0.000000 0.000000
		CHANNELS 3 Zrotation Yrotation Xrotation
		JOINT RightUpLeg
		{
			OFFSET -7.833120 -10.767780 5.035740
			CHANNELS 3 Zrotation Yrotation Xrotation
			JOINT RightLeg
			{
				OFFSET -15.255180 -41.913300 0.000000
				CHANNELS 3 Zrotation Yrotation Xrotation
				JOINT RightFoot
				{
					OFFSET -15.409560 -42.337380 0.000000
					CHANNELS 3 Zrotation Yrotation Xrotation
					JOINT RightToeBase
					{
						OFFSET -0.988380 -2.715540 14.178900
						CHANNELS 3 Zrotation Yrotation Xrotation
						End Site
						{
							OFFSET 0.000000 0.000000 0.000000
						}
					}
				}
			}
		}
	}
	JOINT LowerBack
	{
		OFFSET 0.000000 0.000000 0.000000
		CHANNELS 3 Zrotation Yrotation Xrotation
		JOINT Spine
		{
			OFFSET 0.169620 12.213540 -1.160280
			CHANNELS 3 Zrotation Yrotation Xrotation
			JOINT Spine1
			{
				OFFSET 0.340320 12.293100 -0.256500
				CHANNELS 3 Zrotation Yrotation Xrotation
				JOINT Neck
				{
					OFFSET 0.000000 0.000000 0.000000
					CHANNELS 3 Zrotation Yrotation Xrotation
					JOINT Neck1
					{
						OFFSET -0.325020 10.477440 1.032120
						CHANNELS 3 Zrotation Yrotation Xrotation
						JOINT Head
						{
							OFFSET 0.624420 10.568160 -0.743820
							CHANNELS 3 Zrotation Yrotation Xrotation
							End Site
							{
								OFFSET 0.000000 0.000000 0.000000
							}
						}
					}
				}
				JOINT LeftShoulder
				{
					OFFSET 0.000000 0.000000 0.000000
					CHANNELS 3 Zrotation Yrotation Xrotation
					JOINT LeftArm
					{
						OFFSET 20.174460 7.205340 -1.867260
						CHANNELS 3 Zrotation Yrotation Xrotation
						JOINT LeftForeArm
						{
							OFFSET 29.898000 -0.000000 -0.000000
							CHANNELS 3 Zrotation Yrotation Xrotation
							JOINT LeftHand
							{
								OFFSET 20.901360 -0.000000 -0.000000
								CHANNELS 3 Zrotation Yrotation Xrotation
								JOINT LeftFingerBase
								{
									OFFSET 0.000000 0.000000 0.000000
									CHANNELS 3 Zrotation Yrotation Xrotation
									JOINT LeftHandIndex1
									{
										OFFSET 4.291560 -0.000000 -0.000000
										CHANNELS 3 Zrotation Yrotation Xrotation
										End Site
										{
											OFFSET 0.000000 0.000000 0.000000
										}
									}
								}
								JOINT LThumb
								{
									OFFSET 0.000000 0.000000 0.000000
									CHANNELS 3 Zrotation Yrotation Xrotation
									End Site
									{
										OFFSET 0.000000 0.000000 0.000000
									}
								}
							}
						}
					}
				}
				JOINT RightShoulder
				{
					OFFSET 0.000000 0.000000 0.000000
					CHANNELS 3 Zrotation Yrotation Xrotation
					JOINT RightArm
					{
						OFFSET -18.819600 8.244300 -2.427900
						CHANNELS 3 Zrotation Yrotation Xrotation
						JOINT RightForeArm
						{
							OFFSET -31.451400 -0.000000 -0.000000
							CHANNELS 3 Zrotation Yrotation Xrotation
							JOINT RightHand
							{
								OFFSET -20.665020 -0.000000 -0.000000
								CHANNELS 3 Zrotation Yrotation Xrotation
								JOINT RightFingerBase
								{
									OFFSET 0.000000 0.000000 0.000000
									CHANNELS 3 Zrotation Yrotation Xrotation
									JOINT RightHandIndex1
									{
										OFFSET -3.735180 -0.000000 -0.000000
										CHANNELS 3 Zrotation Yrotation Xrotation
										End Site
										{
											OFFSET 0.000000 0.000000 0.000000
										}
									}
								}
								JOINT RThumb
								{
									OFFSET 0.000000 0.000000 0.000000
									CHANNELS 3 Zrotation Yrotation Xrotation
									End Site
									{
										OFFSET 0.000000 0.000000 0.000000
									}
								}
							}
						}
					}
				}
			}
		}
	}
}
MOTION
Frames:	7
Frame Time:	0.0333333
4.351314 106.288110 -169.213134 -1.209439 2.023835 -1.103474 1.795530 2.278506 1.457159 -18.756502 -4.209326 -7.825082 10.123551 16.680405 60.122454 2.889665 -1.495637 34.926862 0.000100 -0.047800 -0.131300 -3.021589 -2.519746 0.777945 28.344170 10.465500 -16.297497 -2.173953 -9.387582 28.647278 0.613408 -4.560175 3.978791 -0.019300 -0.897100 2.465800 -0.341110 -0.755951 5.828961 1.665461 -1.205860 -1.272995 5.670200 -0.374909 -2.606147 -7.198957 -1.576027 -9.833550 2.108397 -1.183406 14.105305 2.233400 -1.165900 8.887300 -7.006282 3.093853 -2.377869 -80.529001 -4.048659 27.186869 15.862782 -27.956745 -5.204064 -0.723545 -3.498768 0.895901 16.755809 25.043950 8.567200 -7.125000 0.000000 0.000000 -15.070300 59.086500 -5.261800 6.382249 -2.842520 -2.150952 82.246346 -10.905463 -1.887098 -9.612579 15.068164 -1.664359 0.779844 -0.799174 19.399422 -12.099942 9.444566 -2.294400 7.125000 0.000000 0.000000 9.878300 -19.879400 6.019900 
4.411956 106.857138 -163.564512 -1.892315 -0.079136 -1.207671 1.932854 2.105666 1.260571 -18.098531 -3.659231 -14.406301 10.953117 17.402889 63.431730 1.370404 -3.065225 20.644267 0.402500 -4.073000 -11.282300 -3.039367 -2.588809 0.815336 29.875478 9.324657 -11.831131 -1.928077 -8.696395 27.118299 0.407480 -3.229379 1.741535 -0.006300 -0.512800 1.409100 0.618119 -0.059833 5.681896 1.677895 -0.251219 -1.305685 5.075617 0.163021 -2.770957 -6.988590 -1.351229 -8.901674 2.024669 -0.972699 14.399090 2.189700 -1.075900 8.759300 -7.115441 3.116605 -2.368976 -81.180316 -2.119625 26.290301 14.835102 -26.577299 -4.572077 -0.836173 -3.524264 3.491713 16.481948 25.451541 8.527200 -7.125000 0.000000 0.000000 -15.722000 59.471200 -5.641800 6.431389 -2.757381 -2.094701 81.451255 -8.725459 0.257761 -9.759154 15.238505 -1.715461 0.780285 -0.926495 19.215054 -12.546319 10.510878 -2.664100 7.125000 0.000000 0.000000 9.500200 -18.654500 6.045900 
4.255764 107.009658 -157.951410 -2.376225 -0.154638 -0.979003 2.001364 1.897115 1.096527 -17.316904 -4.945431 -20.342720 10.995059 17.736842 63.543128 0.750920 -1.633265 13.292061 0.288600 -3.454600 -9.547000 -3.043352 -2.627175 0.846739 31.143107 8.408728 -8.036165 -1.819546 -8.260621 26.221927 0.565385 -3.863647 -1.081092 -0.009000 -0.613100 1.684800 0.927289 0.205161 5.370722 1.695611 0.073986 -1.350537 4.842355 0.380973 -2.712575 -7.002070 -1.580063 -9.047370 2.114678 -1.276387 14.779727 2.200300 -1.224900 8.982700 -7.155124 3.114757 -2.374356 -81.422946 -0.292122 27.302618 13.995883 -25.459600 -4.095126 -0.825510 -3.576108 4.089231 16.013652 25.801306 8.362400 -7.125000 0.000000 0.000000 -16.556500 59.746700 -6.060800 6.336010 -2.626497 -2.130405 81.063371 -6.609087 5.764467 -11.164184 17.295325 -2.259064 0.889643 -0.479918 13.325633 -12.502023 8.211724 -2.016800 7.125000 0.000000 0.000000 9.665300 -21.343300 5.562800 
4.299864 106.680126 -152.585154 -3.243456 -1.462986 -0.574545 2.033316 1.683026 0.925067 -16.216753 -5.580079 -26.142706 10.266812 17.710185 61.118085 0.023701 1.671342 8.055211 0.001600 -0.254700 -0.699700 -3.054731 -2.638425 0.897098 32.648595 8.120086 -4.396652 -1.727327 -7.887214 25.469433 0.641942 -4.263067 -3.215042 -0.006300 0.513700 -1.411600 2.104834 0.737238 5.577494 1.652273 0.837369 -1.453705 3.944420 0.816993 -3.109277 -6.748510 -1.573861 -9.146300 2.206586 -1.320054 14.905864 2.208400 -1.229200 9.098300 -7.196717 3.096894 -2.398806 -81.240226 1.858417 29.026085 13.050212 -24.176254 -3.646676 -0.852635 -3.379979 1.897013 16.591448 22.547303 7.808100 -7.125000 0.000000 0.000000 -13.653600 56.514100 -3.905000 6.182834 -2.496770 -2.168805 80.659642 -4.758094 10.246409 -12.565585 19.444512 -2.907185 0.849795 -0.837866 9.580752 -12.417246 13.010842 -3.218800 7.125000 0.000000 0.000000 9.591200 -16.078700 6.654600 
4.462182 106.268514 -147.096396 -4.124379 -2.575397 -0.241285 1.955105 1.468222 0.743919 -14.925795 -6.585627 -30.131730 8.374276 16.931081 55.134370 -0.535427 4.024064 2.663304 0.230600 -3.090500 -8.530900 -3.017019 -2.653062 0.937010 34.001982 7.628478 0.084437 -1.439807 -7.119539 23.515970 0.774094 -4.968152 -5.167202 -0.005900 0.495500 -1.361600 3.449708 1.232242 5.861493 1.615283 1.570031 -1.441695 2.997070 1.218243 -3.169115 -6.599292 -1.885280 -9.586192 2.137888 -1.743302 14.534429 2.133600 -1.411400 9.091700 -7.171333 3.049326 -2.416567 -81.174113 3.477235 29.148059 12.652875 -23.677746 -3.515086 -1.211734 -2.880092 6.769804 17.220066 18.153674 6.746300 -7.125000 0.000000 0.000000 -10.748300 51.858600 -1.832800 5.999158 -2.338180 -2.168114 80.143203 -2.266447 14.197700 -14.306692 21.861429 -3.743262 0.908174 -0.459402 7.291686 -12.976073 10.585741 -2.684700 7.125000 0.000000 0.000000 9.261700 -18.843100 5.850700 
4.593258 105.817698 -141.567216 -4.762598 -3.166179 0.470669 1.740227 1.227800 0.539866 -13.309303 -8.137273 -32.703037 5.702342 15.198816 46.076858 -1.131235 6.688309 2.346487 0.022500 -0.967600 -2.659600 -2.936959 -2.666887 0.993287 34.849055 6.193396 4.044807 -1.065319 -6.139657 20.893731 0.971168 -5.968546 -6.815841 -0.005300 -0.471300 1.295000 4.202417 1.527633 5.792860 1.674048 1.972411 -1.525542 2.629799 1.474254 -3.327761 -6.517070 -1.825724 -9.583652 2.047800 -1.656875 13.852799 2.092500 -1.354800 8.805400 -7.082745 3.070054 -2.460310 -81.486972 5.984471 30.030288 12.447601 -23.471900 -3.431450 -0.513515 -3.289920 6.003418 11.878471 22.512988 5.340800 -7.125000 0.000000 0.000000 -18.980700 55.353900 -4.954600 5.774292 -2.230074 -2.179303 78.950071 -0.061562 18.351334 -16.323903 24.604660 -4.837901 0.882754 -0.179809 3.811609 -12.661893 9.397981 -2.276000 7.125000 0.000000 0.000000 9.570900 -20.286600 5.738400 
4.771500 105.357702 -135.927162 -5.520667 -4.125186 1.290331 1.384587 0.976911 0.278586 -10.663576 -10.508527 -33.550475 2.766472 12.271975 34.429148 -1.794674 9.954079 6.050494 0.088800 -1.922400 -5.291300 -2.793502 -2.674971 1.072593 35.430712 4.770710 8.622939 -0.524957 -4.638528 16.777670 1.171485 -6.750362 -7.170460 -0.001300 -0.236500 0.649900 5.178464 1.983008 5.716532 1.654937 2.598430 -1.584250 1.980988 1.822217 -3.316899 -6.796129 -2.049210 -10.147259 2.477775 -1.902070 14.331731 2.317900 -1.470000 9.201100 -7.105527 3.075186 -2.481111 -81.628773 7.263006 29.585275 11.677975 -22.284392 -2.996570 -0.433537 -3.399061 6.958840 10.797057 23.666685 5.001600 -7.125000 0.000000 0.000000 -20.981900 56.292100 -5.995700 5.573863 -2.087424 -2.190921 78.018482 2.430963 21.291318 -18.206609 26.984723 -5.960674 0.695617 0.289784 2.083220 -11.097307 5.531538 -1.082900 7.125000 0.000000 0.000000 11.091700 -24.667100 5.550300 
